<?xml version="1.0" encoding="utf-8" ?><svg xmlns="http://www.w3.org/2000/svg" xmlns:xlink="http://www.w3.org/1999/xlink" width="2049" height="2305" viewBox="500 600 1049 1105"><path fill="#DD577D" transform="matrix(4.35032 0 0 4.34906 0 -6.10352e-05)" d="M146.714 168.222C150.062 167.835 153.277 168.469 156.677 167.869C156.468 171.08 156.634 176.194 156.806 179.501C163.113 178.641 169.999 178.856 176.367 178.942C179.557 178.985 184.302 178.931 187.372 179.387C187.99 182.281 188.099 186.179 188.272 189.216C194.935 189.218 201.597 189.179 208.259 189.099L208.728 189.126C209.199 187.442 209.21 181.024 209.228 179.016C211.216 179.428 217.406 179.15 219.708 179.109C225.122 179.02 230.536 178.965 235.951 178.942C241.501 178.928 247.069 179.065 252.616 179.078C255.367 179.084 259.043 179.239 261.732 179.025C261.805 182.433 261.826 186.28 262.061 189.649C261.738 191.412 261.878 196.868 261.883 199.039L261.982 220.194C258.676 220.105 254.292 219.953 250.999 220.163C251.009 223.816 250.976 227.47 250.9 231.123C247.476 231.121 244.053 231.196 240.633 231.35L240.729 251.673C238.68 251.5 232.378 251.476 230.295 251.708C230.265 254.596 230.26 258.729 229.784 261.572C228.036 261.641 221.141 261.678 220.092 261.95L219.827 262.122C219.815 265.605 219.862 269.246 219.577 272.707C216.66 272.742 211.593 272.667 208.843 272.953C208.473 275.541 209.323 281.339 207.926 282.87C206.089 283.661 200.939 283.248 198.704 283.141L198.496 283.322C198.627 286.761 198.419 290.145 198.53 293.484C194.376 293.479 181.447 293.234 178.034 293.743L177.792 303.838C174.63 303.748 171.468 303.705 168.305 303.709C168.151 300.43 168.043 297.15 167.981 293.869L167.7 293.555C164.167 293.472 160.633 293.458 157.099 293.513C156.859 290.148 157.046 286.94 156.868 283.531L156.794 283.31C155.749 283.039 148.04 282.956 146.813 283.101C146.665 279.98 146.501 276.87 146.785 273.759C150.598 273.059 153.523 273.723 157.088 273.171C157.075 269.592 157.121 265.851 156.905 262.293C160.587 262.103 164.223 262.4 167.989 262.04C167.984 256.178 168.23 247.211 167.828 241.514C165.567 241.4 159.08 241.115 157.076 241.377C156.752 234.744 156.976 226.869 157.05 220.198L157.013 219.909C155.772 219.575 148.489 219.737 146.909 219.755C146.395 214.249 147.071 207.924 146.943 202.38C146.678 190.897 146.437 179.709 146.714 168.222ZM220.173 199.896C227.006 198.923 243.51 199.127 250.488 199.855L250.947 199.746C251.087 196.063 251.202 192.378 251.289 188.693C244.498 189.147 237.128 188.547 230.283 188.829C226.918 188.968 223.142 188.969 219.782 188.852C219.793 192.348 219.846 196.435 220.173 199.896Z"/><path fill="#F89B9D" transform="matrix(4.35032 0 0 4.34906 0 -6.10352e-05)" d="M220.052 231.204C223.45 231.165 226.848 231.209 230.244 231.337C230.303 238.127 230.319 244.917 230.295 251.708C230.265 254.596 230.26 258.729 229.784 261.572C228.036 261.641 221.141 261.678 220.092 261.95L219.827 262.122C219.815 265.605 219.862 269.246 219.577 272.707C216.66 272.742 211.593 272.667 208.843 272.953C208.473 275.541 209.323 281.339 207.926 282.87C206.089 283.661 200.939 283.248 198.704 283.141L198.496 283.322C198.627 286.761 198.419 290.145 198.53 293.484C194.376 293.479 181.447 293.234 178.034 293.743L177.792 303.838C174.63 303.748 171.468 303.705 168.305 303.709C168.151 300.43 168.043 297.15 167.981 293.869L167.7 293.555C164.167 293.472 160.633 293.458 157.099 293.513C156.859 290.148 157.046 286.94 156.868 283.531L156.794 283.31C155.749 283.039 148.04 282.956 146.813 283.101C146.665 279.98 146.501 276.87 146.785 273.759C150.598 273.059 153.523 273.723 157.088 273.171C160.084 272.871 164.703 273.151 167.793 273.284C168.014 271.496 167.872 264.647 167.97 262.05C170.692 261.859 175.406 262.077 178.269 262.125L178.07 251.835L198.757 251.77L198.769 241.442L220.035 241.426L220.052 231.204Z"/><path fill="#FDD7CC" transform="matrix(4.35032 0 0 4.34906 0 -6.10352e-05)" d="M188.434 262.18C191.401 262.193 207.215 261.87 208.835 262.394C208.869 264.544 209.096 271.157 208.843 272.953C208.473 275.541 209.323 281.339 207.926 282.87C206.089 283.661 200.939 283.248 198.704 283.141L198.496 283.322C198.627 286.761 198.419 290.145 198.53 293.484C194.376 293.479 181.447 293.234 178.034 293.743L177.792 303.838C174.63 303.748 171.468 303.705 168.305 303.709C168.151 300.43 168.043 297.15 167.981 293.869C167.757 287.24 167.84 279.997 167.923 273.353C173.329 272.969 182.645 273.256 188.448 273.221C188.344 269.638 188.423 265.785 188.434 262.18Z"/><path fill="#DD577D" transform="matrix(4.35032 0 0 4.34906 0 -6.10352e-05)" d="M178.069 283.243C184.914 283.455 191.783 283.116 198.496 283.322C198.627 286.761 198.419 290.145 198.53 293.484C194.376 293.479 181.447 293.234 178.034 293.743C178.215 290.774 178.071 286.306 178.069 283.243Z"/><path fill="#DD577D" transform="matrix(4.35032 0 0 4.34906 0 -6.10352e-05)" d="M198.712 273.015C201.874 273.03 205.74 273.139 208.843 272.953C208.473 275.541 209.323 281.339 207.926 282.87C206.089 283.661 200.939 283.248 198.704 283.141L198.712 273.015Z"/><path fill="#DD577D" transform="matrix(4.35032 0 0 4.34906 0 -6.10352e-05)" d="M167.981 293.869C171.327 293.645 174.683 293.603 178.034 293.743L177.792 303.838C174.63 303.748 171.468 303.705 168.305 303.709C168.151 300.43 168.043 297.15 167.981 293.869Z"/><path fill="#DD577D" transform="matrix(4.35032 0 0 4.34906 0 -6.10352e-05)" d="M208.835 262.394C209.777 261.96 218.143 262.117 219.827 262.122C219.815 265.605 219.862 269.246 219.577 272.707C216.66 272.742 211.593 272.667 208.843 272.953C209.096 271.157 208.869 264.544 208.835 262.394Z"/><path fill="#FDD7CC" transform="matrix(4.35032 0 0 4.34906 0 -6.10352e-05)" d="M209.06 251.886L219.942 251.817C219.932 255.195 219.982 258.573 220.092 261.95C217.177 261.713 212.129 261.906 209.058 261.939C209.118 258.588 209.119 255.237 209.06 251.886Z"/><path fill="#DD577D" transform="matrix(4.35032 0 0 4.34906 0 -6.10352e-05)" d="M156.868 283.531C160.408 283.348 164.144 283.375 167.704 283.347L167.7 293.555C164.167 293.472 160.633 293.458 157.099 293.513C156.859 290.148 157.046 286.94 156.868 283.531Z"/><path fill="#DD577D" transform="matrix(4.35032 0 0 4.34906 0 -6.10352e-05)" d="M219.942 251.817L230.295 251.708C230.265 254.596 230.26 258.729 229.784 261.572C228.036 261.641 221.141 261.678 220.092 261.95C219.982 258.573 219.932 255.195 219.942 251.817Z"/><path fill="#DD577D" transform="matrix(4.35032 0 0 4.34906 0 -6.10352e-05)" d="M157.088 273.171C156.685 276.445 156.766 279.999 156.794 283.31C155.749 283.039 148.04 282.956 146.813 283.101C146.665 279.98 146.501 276.87 146.785 273.759C150.598 273.059 153.523 273.723 157.088 273.171Z"/><path fill="#FDD7CC" transform="matrix(4.35032 0 0 4.34906 0 -6.10352e-05)" d="M146.714 168.222C150.062 167.835 153.277 168.469 156.677 167.869C156.468 171.08 156.634 176.194 156.806 179.501C163.113 178.641 169.999 178.856 176.367 178.942C179.557 178.985 184.302 178.931 187.372 179.387C187.99 182.281 188.099 186.179 188.272 189.216C194.935 189.218 201.597 189.179 208.259 189.099C209.165 189.863 208.819 194.985 208.817 196.439L208.786 209.776C198.905 209.226 187.939 209.94 177.914 209.604C177.972 212.281 177.766 217.918 177.981 220.079C174.628 219.995 171.274 219.969 167.92 220.002C164.232 220 160.732 219.987 157.05 220.198L157.013 219.909C155.772 219.575 148.489 219.737 146.909 219.755C146.395 214.249 147.071 207.924 146.943 202.38C146.678 190.897 146.437 179.709 146.714 168.222Z"/><path fill="#DD577D" transform="matrix(4.35032 0 0 4.34906 0 -6.10352e-05)" d="M146.714 168.222C150.062 167.835 153.277 168.469 156.677 167.869C156.468 171.08 156.634 176.194 156.806 179.501L156.894 207.493C156.89 209.618 156.684 218.366 157.013 219.909C155.772 219.575 148.489 219.737 146.909 219.755C146.395 214.249 147.071 207.924 146.943 202.38C146.678 190.897 146.437 179.709 146.714 168.222Z"/><path fill="#F89B9D" transform="matrix(4.35032 0 0 4.34906 0 -6.10352e-05)" d="M208.259 189.099L208.728 189.126C209.381 190.198 208.961 217.118 208.955 220.221C212.646 220.192 216.36 220.048 220.02 220.032C220.022 217.015 219.942 212.608 220.209 209.627C220.326 206.705 220.19 202.888 220.173 199.896C227.006 198.923 243.51 199.127 250.488 199.855L250.947 199.746C250.992 206.512 250.995 213.279 250.954 220.046C241.552 219.934 229.321 219.695 220.034 220.097C219.977 223.769 219.97 227.442 220.014 231.114C212.907 231.155 205.8 231.143 198.694 231.079C198.664 234.502 198.675 237.926 198.726 241.349L177.202 241.443C174.455 241.448 170.422 241.621 167.828 241.514C165.567 241.4 159.08 241.115 157.076 241.377C156.752 234.744 156.976 226.869 157.05 220.198C160.732 219.987 164.232 220 167.92 220.002C171.274 219.969 174.628 219.995 177.981 220.079C177.766 217.918 177.972 212.281 177.914 209.604C187.939 209.94 198.905 209.226 208.786 209.776L208.817 196.439C208.819 194.985 209.165 189.863 208.259 189.099Z"/><path fill="#FDD7CC" transform="matrix(4.35032 0 0 4.34906 0 -6.10352e-05)" d="M220.173 199.896C227.006 198.923 243.51 199.127 250.488 199.855C250.956 200.585 250.756 208.131 250.752 209.693C241.038 209.631 229.707 209.997 220.209 209.627C220.326 206.705 220.19 202.888 220.173 199.896Z"/><path fill="#DD577D" transform="matrix(4.35032 0 0 4.34906 0 -6.10352e-05)" d="M157.05 220.198C160.732 219.987 164.232 220 167.92 220.002C167.831 225.711 167.408 236.158 167.828 241.514C165.567 241.4 159.08 241.115 157.076 241.377C156.752 234.744 156.976 226.869 157.05 220.198Z"/><path fill="#F89B9D" transform="matrix(4.35032 0 0 4.34906 0 -6.10352e-05)" d="M314.255 168.005C317.266 168.033 321.498 168.146 324.418 167.972C324.757 185.09 324.325 202.535 324.36 219.677C322.692 219.71 315.485 219.762 314.237 220.041L314.041 220.162C313.835 226.055 314.406 235.836 313.964 240.921C310.443 241.531 306.672 241.111 303.167 241.453C303.007 248.532 303.271 255.425 303.163 262.24C305.958 262.228 311.477 262.356 314.051 262.068C313.884 265.622 313.969 269.465 313.987 273.045L314.167 273.366C316.756 273.558 321.428 273.57 324.183 273.557C324.576 276.941 324.509 279.387 324.331 282.797C322.22 282.972 315.302 282.965 314.13 283.311C313.99 286.225 313.983 290.677 313.653 293.376C311.171 293.403 305.599 293.333 303.262 293.632L303.012 293.771C303 297.308 302.918 300.305 302.693 303.832C299.922 303.748 296.052 303.779 293.265 304.026C293.128 300.607 293 297.387 293.038 293.969L292.925 293.628C291.005 293.356 286.957 293.447 284.914 293.455L272.575 293.484C272.4 290.106 272.323 286.723 272.346 283.341C269.028 283.299 265.652 283.327 262.329 283.323C262.078 280.519 262.204 276.038 262.173 273.057L261.851 272.878C259.405 272.612 254.229 272.838 251.322 272.755C251.111 269.245 251.127 265.64 251.101 262.116L250.949 261.931C249.801 261.669 243.837 261.871 241.174 261.464C240.833 258.283 240.891 255.026 240.867 251.819L240.729 251.673L240.633 231.35C244.053 231.196 247.476 231.121 250.9 231.123C250.976 227.47 251.009 223.816 250.999 220.163C254.292 219.953 258.676 220.105 261.982 220.194L261.883 199.039C261.878 196.868 261.738 191.412 262.061 189.649L262.502 189.654C265.751 188.832 278.851 189.181 282.559 189.469C282.73 187.375 282.886 181.03 283.635 179.555C286.65 178.35 309.394 179.121 314.045 179.161C314.133 176.048 314.426 170.966 314.255 168.005Z"/><path fill="#FDD7CC" transform="matrix(4.35032 0 0 4.34906 0 -6.10352e-05)" d="M314.255 168.005C317.266 168.033 321.498 168.146 324.418 167.972C324.757 185.09 324.325 202.535 324.36 219.677C322.692 219.71 315.485 219.762 314.237 220.041L314.041 220.162C311.776 219.957 309.048 220.017 306.74 220.009C303.665 219.752 296.488 219.988 292.987 219.993C292.982 216.506 293.096 213.293 293.252 209.805C283.69 209.634 271.688 209.369 262.176 209.768C262.162 207.507 261.884 190.475 262.502 189.654C265.751 188.832 278.851 189.181 282.559 189.469C282.73 187.375 282.886 181.03 283.635 179.555C286.65 178.35 309.394 179.121 314.045 179.161C314.133 176.048 314.426 170.966 314.255 168.005Z"/><path fill="#DD577D" transform="matrix(4.35032 0 0 4.34906 0 -6.10352e-05)" d="M314.255 168.005C317.266 168.033 321.498 168.146 324.418 167.972C324.757 185.09 324.325 202.535 324.36 219.677C322.692 219.71 315.485 219.762 314.237 220.041C313.38 207.365 314.755 192.033 314.045 179.161C314.133 176.048 314.426 170.966 314.255 168.005Z"/><path fill="#FDD7CC" transform="matrix(4.35032 0 0 4.34906 0 -6.10352e-05)" d="M262.192 262.118C268.12 262.155 276.914 262.455 282.593 262.08C282.577 265.81 282.582 269.54 282.607 273.27L303.115 273.285C303.489 276.311 302.855 280.284 303.231 283.342C303.245 286.72 303.317 290.269 303.262 293.632L303.012 293.771C303 297.308 302.918 300.305 302.693 303.832C299.922 303.748 296.052 303.779 293.265 304.026C293.128 300.607 293 297.387 293.038 293.969L292.925 293.628C291.005 293.356 286.957 293.447 284.914 293.455L272.575 293.484C272.4 290.106 272.323 286.723 272.346 283.341C269.028 283.299 265.652 283.327 262.329 283.323C262.078 280.519 262.204 276.038 262.173 273.057L262.192 262.118Z"/><path fill="#DD577D" transform="matrix(4.35032 0 0 4.34906 0 -6.10352e-05)" d="M272.346 283.341C279.193 283.356 286.04 283.325 292.887 283.247C292.955 286.707 292.968 290.168 292.925 293.628C291.005 293.356 286.957 293.447 284.914 293.455L272.575 293.484C272.4 290.106 272.323 286.723 272.346 283.341Z"/><path fill="#DD577D" transform="matrix(4.35032 0 0 4.34906 0 -6.10352e-05)" d="M262.173 273.057C265.535 273.062 268.897 273.042 272.259 272.997C272.263 275.194 272.12 281.402 272.346 283.341C269.028 283.299 265.652 283.327 262.329 283.323C262.078 280.519 262.204 276.038 262.173 273.057Z"/><path fill="#DD577D" transform="matrix(4.35032 0 0 4.34906 0 -6.10352e-05)" d="M293.038 293.969C296.327 293.602 299.709 293.632 303.012 293.771C303 297.308 302.918 300.305 302.693 303.832C299.922 303.748 296.052 303.779 293.265 304.026C293.128 300.607 293 297.387 293.038 293.969Z"/><path fill="#DD577D" transform="matrix(4.35032 0 0 4.34906 0 -6.10352e-05)" d="M250.997 231.119C258.064 231.201 265.246 231.124 272.323 231.11C272.378 234.471 272.291 238 272.257 241.374C282.382 241.702 292.975 241.224 303.167 241.453C303.007 248.532 303.271 255.425 303.163 262.24C305.958 262.228 311.477 262.356 314.051 262.068C313.884 265.622 313.969 269.465 313.987 273.045C310.788 273.015 306.041 273.372 303.261 273.198C303.249 269.574 303.287 265.812 303.11 262.205C299.988 261.927 296.096 262.056 292.895 262.084C292.84 258.684 292.86 255.283 292.957 251.883C286.167 251.708 279.047 251.794 272.232 251.779L272.223 241.45C265.141 241.415 258.022 241.53 250.945 241.387C250.77 238.59 250.963 234.044 250.997 231.119Z"/><path fill="#DD577D" transform="matrix(4.35032 0 0 4.34906 0 -6.10352e-05)" d="M306.74 220.009C309.048 220.017 311.776 219.957 314.041 220.162C313.835 226.055 314.406 235.836 313.964 240.921C310.443 241.531 306.672 241.111 303.167 241.453C303.635 234.689 302.828 227.055 303.228 220.158C304.439 220.186 305.537 220.093 306.74 220.009Z"/><path fill="#DD577D" transform="matrix(4.35032 0 0 4.34906 0 -6.10352e-05)" d="M251.101 262.116L251.473 262.111C254.994 262.317 258.477 262.083 261.964 262.192C261.936 265.725 261.95 269.355 261.851 272.878C259.405 272.612 254.229 272.838 251.322 272.755C251.111 269.245 251.127 265.64 251.101 262.116Z"/><path fill="#FDD7CC" transform="matrix(4.35032 0 0 4.34906 0 -6.10352e-05)" d="M250.979 251.984C251.756 251.542 260.239 251.836 261.914 251.862C261.853 255.215 261.859 258.569 261.93 261.922C259.272 261.903 254.025 261.751 251.473 262.111L251.101 262.116L250.949 261.931C251.029 258.616 251.039 255.299 250.979 251.984Z"/><path fill="#DD577D" transform="matrix(4.35032 0 0 4.34906 0 -6.10352e-05)" d="M303.231 283.342C306.347 283.398 311.081 283.591 314.13 283.311C313.99 286.225 313.983 290.677 313.653 293.376C311.171 293.403 305.599 293.333 303.262 293.632C303.317 290.269 303.245 286.72 303.231 283.342Z"/><path fill="#DD577D" transform="matrix(4.35032 0 0 4.34906 0 -6.10352e-05)" d="M240.867 251.819C242.343 251.797 250.258 251.514 250.979 251.984C251.039 255.299 251.029 258.616 250.949 261.931C249.801 261.669 243.837 261.871 241.174 261.464C240.833 258.283 240.891 255.026 240.867 251.819Z"/><path fill="#DD577D" transform="matrix(4.35032 0 0 4.34906 0 -6.10352e-05)" d="M314.167 273.366C316.756 273.558 321.428 273.57 324.183 273.557C324.576 276.941 324.509 279.387 324.331 282.797C322.22 282.972 315.302 282.965 314.13 283.311C314.336 280.089 314.217 276.614 314.167 273.366Z"/><path fill="#DD577D" transform="matrix(4.35032 0 0 4.34906 0 -6.10352e-05)" d="M282.667 157.682C292.613 157.339 304.155 157.583 314.248 157.569C314.141 160.026 314.439 165.756 314.061 167.845C309.32 167.58 303.642 167.718 298.844 167.714C293.656 167.71 287.857 167.584 282.707 167.795C282.545 164.36 282.613 161.121 282.667 157.682Z"/><path fill="#DD577D" transform="matrix(4.35032 0 0 4.34906 0 -6.10352e-05)" d="M157.063 157.554C167.2 157.783 178.065 157.597 188.252 157.603C188.217 160.721 188.111 164.608 188.349 167.658C187.333 168.059 160.623 167.656 157.034 167.691C156.755 164.552 156.839 160.694 157.063 157.554Z"/><path fill="#DD577D" transform="matrix(4.35032 0 0 4.34906 0 -6.10352e-05)" d="M262.254 167.805C264.361 168.199 280.128 168.194 282.402 167.935C282.553 170.821 282.188 176.237 282.627 178.497C276.038 178.511 268.965 178.414 262.425 178.765C262.03 175.283 262.19 171.332 262.254 167.805Z"/><path fill="#DD577D" transform="matrix(4.35032 0 0 4.34906 0 -6.10352e-05)" d="M200.206 168.092C202.983 167.92 205.995 168.039 208.882 167.894C208.697 171.086 208.689 175.63 208.992 178.802C205.922 178.414 199.932 178.54 196.636 178.518C193.972 178.22 191.284 178.207 188.617 178.478C188.497 175.122 188.583 171.621 188.622 168.252C192.483 168.242 196.345 168.189 200.206 168.092Z"/></svg>