<svg width="261" height="153" viewBox="0 0 261 153" fill="none" xmlns="http://www.w3.org/2000/svg">
<path d="M110.655 0.396624C117.41 -0.141376 143.698 -0.25339 149.866 0.83861C151.539 8.41061 150.553 17.6116 150.518 25.3976C150.466 36.6766 149.374 103.623 151.48 108.218C151.965 109.276 152.568 109.691 153.69 109.945C155.023 110.246 156.318 109.869 157.41 109.104C162.676 105.416 169.374 97.5196 174.179 92.6866L209.161 57.5846C216.031 50.6316 225.505 40.2226 232.907 34.6346C240.681 41.5936 254.134 54.6546 260.493 62.8136C258.146 66.3206 252.476 71.8036 249.309 75.0056L230.642 93.7666L196.37 128.06C189.117 135.306 179.668 145.612 171.209 151.74C168.685 153.569 162.48 149.681 160.054 147.991C155.849 145.062 152.184 142.527 147.144 140.725C131.537 136.203 119.278 136.533 104.696 145.279C99.667 148.294 96.455 151.96 90.283 152.229C84.212 149.142 70.725 134.495 65.015 128.781L30.09 93.8176C25.091 88.8216 2.612 67.1196 0 62.8546C4.073 56.8916 21.856 39.3596 27.738 35.0686C31.786 37.5146 40.726 46.8706 44.38 50.5446L81.294 87.6456C85.7 92.0956 102.615 112.138 108.31 109.857C111.025 105.845 110.018 83.9906 110.012 77.9926L109.912 23.6686C109.9 18.5196 109.377 4.51562 110.655 0.396624Z" fill="white"/>
</svg>
